<?xml version="1.0" encoding="UTF-8"?>
<svg version="1.1" xmlns="http://www.w3.org/2000/svg" width="1000" height="1000">
<path d="M0 0 C4.10901995 2.29375975 7.63535366 5.06483627 11.1875 8.125 C11.75702393 8.61145996 12.32654785 9.09791992 12.91333008 9.59912109 C17.15227041 13.23419502 21.33060735 16.93319552 25.45849609 20.6940918 C27.05870689 22.14596413 28.66556461 23.59057643 30.28173828 25.0246582 C36.63134238 30.66545395 42.69582688 36.5446814 48.6875 42.5625 C49.58533203 43.45646484 50.48316406 44.35042969 51.40820312 45.27148438 C56.48205042 50.35276588 61.34277826 55.53602703 66 61 C66.94920393 62.08318668 67.89967136 63.1652678 68.8515625 64.24609375 C76.65254206 73.18932483 83.91820005 82.47992552 91 92 C91.52706543 92.70608398 92.05413086 93.41216797 92.59716797 94.13964844 C106.59144649 112.96236224 119.0920503 132.70208453 130.81762695 153.00488281 C131.82415167 154.70327636 132.90488741 156.35733111 134 158 C134 158.99 134 159.98 134 161 C132.97261719 161.49628906 131.94523438 161.99257812 130.88671875 162.50390625 C108.18875293 173.56978303 94.43982697 187.34203726 79.68505859 207.68652344 C73.52781385 216.14002259 67.10674845 224.31756522 60 232 C57.525 230.02 57.525 230.02 55 228 C55.15855469 227.17242187 55.31710937 226.34484375 55.48046875 225.4921875 C59.72896574 196.93462126 46.24435424 174.34517507 30 152 C26.53683369 147.48056797 22.82113605 143.21806025 19 139 C17.83017578 137.68515625 17.83017578 137.68515625 16.63671875 136.34375 C15.19639137 134.73177738 13.74933184 133.12577672 12.29345703 131.52783203 C10.87354137 129.96281109 9.46175965 128.39031541 8.06323242 126.80615234 C2.16002991 120.13606854 -4.04060754 113.80554397 -10.34790039 107.52172852 C-12.0670867 105.80792767 -13.78082583 104.08880918 -15.49414062 102.36914062 C-21.16090437 96.6985383 -26.8738797 91.17835917 -33 86 C-34.23862402 84.91985203 -35.47560037 83.83781181 -36.7109375 82.75390625 C-43.68554358 76.67182521 -50.69708804 70.68767967 -58 65 C-69.37947413 69.05812129 -78.95168974 78.09681187 -87.41222703 86.47723901 C-89 88 -89 88 -90.57743227 89.29753077 C-93.85119865 92.1335688 -94.90974767 93.52028008 -95.73828697 97.92423058 C-95.76331474 99.43800914 -95.75560426 100.95255411 -95.7215271 102.46615601 C-95.72665365 103.30432724 -95.7317802 104.14249847 -95.7370621 105.00606883 C-95.74692512 107.8074069 -95.71398163 110.60657636 -95.68115234 113.40771484 C-95.67945948 115.418426 -95.68041071 117.42914086 -95.68380737 119.43984985 C-95.68552894 124.89419126 -95.65025209 130.34774105 -95.60836363 135.80189848 C-95.57085696 141.50335903 -95.5673313 147.20483771 -95.56021118 152.90640259 C-95.54156222 163.70116464 -95.4923242 174.49556212 -95.43211424 185.29016364 C-95.36505094 197.58022297 -95.3320605 209.87029971 -95.30194163 222.16049647 C-95.23922546 247.44053311 -95.13368914 272.72024613 -95 298 C-94.51468119 297.71312852 -94.02936237 297.42625704 -93.52933693 297.13069248 C-91.30485225 295.81661488 -89.07943659 294.50412182 -86.85400391 293.19165039 C-86.09064224 292.7403904 -85.32728058 292.2891304 -84.54078674 291.82419586 C-78.91010911 288.50560068 -73.23165769 285.34274842 -67.375 282.4375 C-66.46314941 281.98479736 -65.55129883 281.53209473 -64.61181641 281.06567383 C-37.37044139 267.79822715 -6.34426067 256.97896025 24.27734375 256.796875 C25.04695938 256.79117493 25.81657501 256.78547485 26.60951233 256.77960205 C28.2322556 256.77021368 29.85501741 256.76364282 31.4777832 256.75976562 C33.9002637 256.75014784 36.32186159 256.71910246 38.74414062 256.6875 C56.97009762 256.5626615 74.94572105 258.3718304 88.77734375 271.55078125 C97.93369327 281.64046693 108.12834472 295.50145113 108.12304783 309.55411053 C108.12503888 310.716571 108.12702993 311.87903148 108.12908131 313.07671803 C108.12616847 314.35977434 108.12325563 315.64283065 108.12025452 316.96476746 C108.12069037 318.33679055 108.12156554 319.70881355 108.12284368 321.08083612 C108.12508586 324.85939116 108.12107111 328.63791801 108.11606562 332.41646945 C108.11175736 336.48802941 108.11320781 340.5595877 108.1139679 344.63114929 C108.11449289 351.68818223 108.11134862 358.74520594 108.10573006 365.80223656 C108.09761177 376.00558693 108.0949995 386.20893283 108.09374207 396.41228608 C108.09155207 412.96553375 108.08489338 429.51877649 108.07543945 446.07202148 C108.066264 462.154378 108.05918382 478.23673319 108.05493164 494.3190918 C108.05466892 495.30998616 108.05440619 496.30088052 108.05413551 497.32180198 C108.0528305 502.29270173 108.05156678 507.26360148 108.05032361 512.23450124 C108.03995261 553.48967092 108.02233569 594.74483518 108 636 C105.05953879 634.88745998 102.72857859 633.81612206 100.10546875 632.0390625 C84.1234174 621.54518728 63.11917738 621.08928698 44.9375 624.625 C16.28239575 630.68371095 -7.49728572 646.66844586 -29 666 C-29.5460791 666.48436523 -30.0921582 666.96873047 -30.65478516 667.46777344 C-42.85463966 678.30324196 -53.96227932 690.12850104 -64 703 C-64.44666016 703.56879883 -64.89332031 704.13759766 -65.35351562 704.72363281 C-81.65623457 725.58184764 -95.53112254 748.66445151 -106 773 C-106.66 773 -107.32 773 -108 773 C-108.32049316 772.39865234 -108.64098633 771.79730469 -108.97119141 771.17773438 C-117.30560583 755.57613511 -125.95296882 740.19910585 -135 725 C-135.65484375 723.89640137 -136.3096875 722.79280273 -136.984375 721.65576172 C-147.44259706 704.05587519 -158.48315884 686.92539755 -170 670 C-170.54914063 669.19079102 -171.09828125 668.38158203 -171.6640625 667.54785156 C-178.6444962 657.27363992 -185.79722117 647.11924142 -193 637 C-193.59820557 636.15767822 -193.59820557 636.15767822 -194.20849609 635.29833984 C-196.43472964 632.1699215 -198.69621049 629.07171935 -201 626 C-201.46148438 625.3709375 -201.92296875 624.741875 -202.3984375 624.09375 C-210.74154171 613.4840221 -223.76208276 605.49354777 -237 603 C-253.30935001 601.2030393 -267.99785691 605.72573377 -282 614 C-282.82245555 614.44344977 -283.6449111 614.88689955 -284.49228954 615.34378719 C-289.7623426 618.42286561 -289.7623426 618.42286561 -292.91712379 623.42798042 C-293.25263918 626.35879139 -293.27273788 629.14519135 -293.18286133 632.09399414 C-293.18914047 633.19109207 -293.19541962 634.28819 -293.20188904 635.41853333 C-293.21020863 639.04264718 -293.14700121 642.66167389 -293.08203125 646.28515625 C-293.07097736 648.82318229 -293.06393683 651.36122867 -293.06071472 653.89927673 C-293.04386629 659.22700666 -292.99584258 664.55302746 -292.91918945 669.88012695 C-292.82195847 676.6476456 -292.78313001 683.41408973 -292.76451588 690.18222904 C-292.74401553 696.69586164 -292.69519842 703.20920025 -292.64453125 709.72265625 C-292.63737406 710.9378853 -292.63021687 712.15311436 -292.62284279 713.40516853 C-292.88916703 753.22084677 -292.88916703 753.22084677 -276 788 C-273.87396815 789.76323505 -273.87396815 789.76323505 -272 791 C-273.875 795.875 -273.875 795.875 -275 797 C-317.75001588 797.25265967 -374.9351352 786.82902833 -407.46875 756.71484375 C-419.8351821 743.63318889 -420.29848941 728.99056102 -420.25537109 711.91748047 C-420.2581248 710.09649499 -420.261807 708.27551072 -420.26634216 706.45452881 C-420.27442064 702.54992929 -420.27663115 698.64538692 -420.27439499 694.74077988 C-420.2715506 688.56282666 -420.28595449 682.38498674 -420.30337524 676.20706177 C-420.35029905 658.64538248 -420.37434919 641.0837119 -420.38085938 623.52197266 C-420.38461149 613.80996499 -420.40264804 604.09808654 -420.43595374 594.38613427 C-420.45614413 588.24821491 -420.45855022 582.11062932 -420.44767356 575.97269034 C-420.44506335 572.15257757 -420.45908473 568.3326586 -420.47775459 564.51259613 C-420.48306854 562.74536725 -420.48159344 560.9781025 -420.47271919 559.21088791 C-420.28349918 545.74585949 -420.28349918 545.74585949 -426.578125 534.1171875 C-437.50877439 525.99581716 -458.25131239 518.49360359 -472 520 C-474.27259085 521.55231034 -474.27259085 521.55231034 -476.328125 523.76953125 C-477.1236377 524.57060303 -477.91915039 525.3716748 -478.73876953 526.19702148 C-479.56747559 527.06012939 -480.39618164 527.9232373 -481.25 528.8125 C-482.10319824 529.68527588 -482.95639648 530.55805176 -483.83544922 531.45727539 C-488.76849554 536.54775937 -493.66063121 541.6377952 -497.90749741 547.32420254 C-500 550 -500 550 -502.30957413 552.35707951 C-510.91571255 561.83023251 -510.24179969 571.39918569 -510.06933594 583.68334961 C-510.0717119 585.86777483 -510.07801395 588.05219874 -510.08792114 590.23660278 C-510.10326371 596.14474974 -510.06282911 602.05131656 -510.01134014 607.95921016 C-509.96601216 614.16731011 -509.96974856 620.37539569 -509.96734619 626.58363342 C-509.95557477 637.68401789 -509.90300936 648.78373777 -509.83071187 659.88387943 C-509.7490737 672.55195824 -509.72542325 685.21956802 -509.7127037 697.88791561 C-509.70069602 709.41083055 -509.66318862 720.93364397 -509.62166309 732.45648503 C-509.60944892 736.13011074 -509.60062986 739.80373301 -509.59227753 743.47736931 C-509.57742491 749.28636358 -509.54653175 755.09507939 -509.50396347 760.90393448 C-509.49057344 763.01883609 -509.48192186 765.13377474 -509.47874069 767.24871635 C-509.42030709 799.02025508 -504.49262893 833.56829559 -481 857.25 C-480.01033289 858.17781291 -479.01461128 859.09953249 -478 860 C-478.99 861.32 -479.98 862.64 -481 864 C-487.03059193 863.47595124 -491.78705478 861.60508706 -497.25 859.0625 C-498.11971436 858.66281006 -498.98942871 858.26312012 -499.88549805 857.85131836 C-514.64732353 850.98680964 -528.73739626 843.46499303 -542 834 C-543.02351562 833.27167969 -544.04703125 832.54335938 -545.1015625 831.79296875 C-565.68334991 816.72319037 -585.06272004 798.7323451 -600 778 C-600.83977557 776.87657857 -601.68094558 775.75419829 -602.5234375 774.6328125 C-603.37089876 773.48519171 -604.2172487 772.33674946 -605.0625 771.1875 C-605.4850708 770.62442139 -605.9076416 770.06134277 -606.34301758 769.48120117 C-608.6774574 766.25831084 -610.40779108 763.19083341 -611.86328125 759.48046875 C-613.89127817 754.64337722 -615.75577182 750.26843025 -620 747 C-627.92736499 744.14111862 -636.38731333 743.90260521 -644.72265625 743.33300781 C-650.13133597 742.78343696 -655.94679222 742.14897307 -659.83203125 738.08251953 C-660.21746094 737.39528809 -660.60289062 736.70805664 -661 736 C-660 733 -660 733 -657.92578125 731.89453125 C-656.63220703 731.35892578 -656.63220703 731.35892578 -655.3125 730.8125 C-649.82610814 728.19061516 -647.01788068 725.21703032 -644 720 C-643.62230469 719.35546875 -643.24460937 718.7109375 -642.85546875 718.046875 C-635.95234739 704.49917615 -636.56792221 688.37179023 -636.6257782 673.59906006 C-636.62303284 671.46855797 -636.61897669 669.33805724 -636.61373454 667.20755982 C-636.60320763 661.39169747 -636.61123783 655.57599017 -636.62248504 649.7601347 C-636.63136389 643.47215316 -636.62287266 637.1841911 -636.61662292 630.89620972 C-636.60769895 619.30016503 -636.61228392 607.70418336 -636.62378674 596.10814337 C-636.63434912 585.38607918 -636.63885892 574.66403255 -636.63749123 563.9419632 C-636.6374072 563.22899889 -636.63732317 562.51603459 -636.63723659 561.7814653 C-636.6368843 558.88672233 -636.63650027 555.99197937 -636.63607101 553.09723641 C-636.63210971 525.96345715 -636.64480331 498.82970888 -636.66559757 471.69593849 C-636.68394196 447.64624283 -636.68978532 423.5965769 -636.68432617 399.546875 C-636.68397974 398.0042196 -636.68363364 396.4615642 -636.68328788 394.9189088 C-636.68303139 393.77486566 -636.68303139 393.77486566 -636.68276971 392.60771053 C-636.68191602 388.76751498 -636.68109225 384.92731943 -636.68030071 381.08712387 C-636.68014363 380.32933613 -636.67998655 379.5715484 -636.67982471 378.7907974 C-636.67582251 358.64147117 -636.68132709 338.49214777 -636.689812 318.34282327 C-636.69071895 316.17091602 -636.6916246 313.99900877 -636.69252724 311.82710152 C-636.69312835 310.38657523 -636.69373697 308.94604894 -636.69435314 307.50552266 C-636.69855517 297.51080479 -636.69916084 287.51609255 -636.69724765 277.52137409 C-636.69479088 264.624193 -636.69919625 251.72704998 -636.71445765 238.82987556 C-636.72164862 232.62086602 -636.72582467 226.41189764 -636.72121429 220.20288467 C-636.63562833 184.55318752 -636.63562833 184.55318752 -639 149 C-639.08204788 148.20106685 -639.16409575 147.4021337 -639.24862993 146.57899046 C-639.68811936 142.41363716 -640.20833749 138.26962395 -640.8125 134.125 C-640.98354248 132.93068359 -641.15458496 131.73636719 -641.33081055 130.50585938 C-646.10203363 98.46652917 -655.97481569 68.15110049 -674 41 C-672.68 39.68 -671.36 38.36 -670 37 C-665.27361359 38.66487192 -661.18667743 41.14118114 -656.9375 43.75 C-655.76743408 44.46712158 -655.76743408 44.46712158 -654.57373047 45.19873047 C-640.87845268 53.70290277 -627.78384951 63.18830598 -615 73 C-613.9246747 73.81796545 -612.84914576 74.63566324 -611.7734375 75.453125 C-601.88968464 82.98519132 -592.30544534 90.853859 -582.84472656 98.90942383 C-579.35787761 101.87303801 -575.82078 104.76239145 -572.25 107.625 C-567.92258862 111.14219938 -563.99411438 114.89874099 -560.10546875 118.890625 C-558.17821133 120.82145804 -556.20061436 122.60672813 -554.125 124.375 C-548.79164088 128.94950442 -543.9315056 134.00215128 -539 139 C-537.33585392 140.66921112 -535.66818463 142.33482111 -534 144 C-519.73149336 134.47420773 -506.04924226 124.20673669 -492.62109375 113.53125 C-491.97027832 113.01433594 -491.31946289 112.49742187 -490.64892578 111.96484375 C-489.45706877 111.01414686 -488.26899477 110.05868051 -487.08544922 109.09765625 C-483.21699766 106 -483.21699766 106 -481 106 C-480.59872871 111.04561499 -481.52946773 113.42916755 -484.375 117.5625 C-500.42051281 142.19261755 -509.11256162 171.43052859 -509.01953125 200.828125 C-509.01671143 201.98731445 -509.0138916 203.14650391 -509.01098633 204.34082031 C-509.0055481 205.65711426 -509.0055481 205.65711426 -509 207 C-497.43156318 184.02076794 -497.43156318 184.02076794 -486.22094727 160.86572266 C-483.58420648 155.30797735 -480.92066026 149.76448481 -478.2265625 144.234375 C-477.89436707 143.55233505 -477.56217163 142.8702951 -477.21990967 142.16758728 C-476.88308167 141.47605057 -476.54625366 140.78451385 -476.19921875 140.07202148 C-469.98147531 127.30593246 -463.87451304 114.50235753 -457.9362793 101.60327148 C-453.39228425 91.76597961 -448.67182401 82.01991114 -443.91595459 72.28369141 C-440.33162923 64.94375244 -436.78059069 57.59436002 -433.38671875 50.1640625 C-433.10616135 49.55033783 -432.82560394 48.93661316 -432.5365448 48.30429077 C-431.22327405 45.42545712 -429.92036716 42.54238903 -428.62866211 39.65380859 C-428.17628174 38.65430176 -427.72390137 37.65479492 -427.2578125 36.625 C-426.8673877 35.75101563 -426.47696289 34.87703125 -426.07470703 33.9765625 C-425 32 -425 32 -423 31 C-423 41.89 -423 52.78 -423 64 C-421.35 64.66 -419.7 65.32 -418 66 C-416.27447402 67.1969613 -414.5905703 68.4548109 -412.9375 69.75 C-398.87082123 80.56740432 -384.02976531 90.390652 -369.37207031 100.38232422 C-364.55520927 103.66726877 -359.74334206 106.95953391 -354.93359375 110.25488281 C-351.16206736 112.83878629 -347.38720931 115.41728812 -343.6015625 117.98046875 C-322.37022283 132.38753691 -303.69010394 147.09768673 -297.46724701 173.23792553 C-296.91885159 176.47969905 -296.85486332 179.56065219 -296.8326416 182.84944153 C-296.82684822 183.52593882 -296.82105483 184.20243611 -296.81508589 184.89943331 C-296.79709285 187.15926712 -296.78617449 189.4190762 -296.77539062 191.67895508 C-296.76420933 193.30216189 -296.75269581 194.92536644 -296.74087524 196.54856873 C-296.70439597 201.8721905 -296.67911335 207.19583553 -296.65625 212.51953125 C-296.65230413 213.4261355 -296.64835827 214.33273975 -296.64429283 215.26681685 C-296.60788765 223.82029008 -296.57645505 232.3737717 -296.55518341 240.92729664 C-296.5275968 251.85701282 -296.47678606 262.78608101 -296.39470911 273.71552736 C-296.33890468 281.4074028 -296.30994595 289.09910243 -296.3007102 296.79117316 C-296.29445677 301.38259719 -296.27637051 305.97326017 -296.22932434 310.56446266 C-296.18560036 314.88462775 -296.17518654 319.20361703 -296.18995285 323.52396584 C-296.1896247 325.10580386 -296.17738673 326.68769308 -296.15210342 328.26932907 C-295.94894869 341.690498 -295.94894869 341.690498 -300.40466309 346.85209656 C-301.57385441 347.93389899 -302.76948164 348.9885014 -304 350 C-304.77085937 350.80308594 -305.54171875 351.60617187 -306.3359375 352.43359375 C-307.00882812 353.09488281 -307.68171875 353.75617188 -308.375 354.4375 C-309.13296875 355.18773437 -309.8909375 355.93796875 -310.671875 356.7109375 C-312.22395833 358.23697917 -313.77604167 359.76302083 -315.328125 361.2890625 C-318.77899213 364.7047167 -322.15987984 368.11790398 -325.3125 371.8125 C-330.70158127 378.08320517 -336.7224378 383.77717809 -342.60253906 389.58203125 C-344.17468215 391.13585998 -345.74363084 392.69286677 -347.3125 394.25 C-348.69888672 395.61898437 -348.69888672 395.61898437 -350.11328125 397.015625 C-352.23607433 399.16142013 -354.21919418 401.3916285 -356.1832428 403.6832428 C-359.93645207 407.98680213 -363.90352825 412.03090706 -367.95483398 416.05249023 C-368.71663467 416.81283066 -369.47843536 417.57317108 -370.26332092 418.35655212 C-371.90289223 419.992343 -373.54361687 421.62697857 -375.18539238 423.26055717 C-377.78012954 425.8424612 -380.37166861 428.42753754 -382.9624176 431.01344299 C-388.45130407 436.49094801 -393.944129 441.96449301 -399.4375 447.4375 C-405.82825484 453.80467937 -412.21739892 460.17345782 -418.60237312 466.5464344 C-421.1619641 469.09951908 -423.72453422 471.64958818 -426.28721619 474.1995697 C-427.84193288 475.75065712 -429.39651117 477.30188329 -430.95092773 478.85327148 C-431.66928802 479.56646545 -432.38764832 480.27965942 -433.1277771 481.01446533 C-434.09705894 481.98364143 -434.09705894 481.98364143 -435.08592224 482.97239685 C-435.65202933 483.53628333 -436.21813643 484.10016981 -436.80139828 484.68114376 C-438.11209377 485.82631647 -438.11209377 485.82631647 -438 487 C-432.83512596 487.57972072 -427.6682935 488.13924775 -422.5 488.6875 C-421.26114044 488.81896927 -421.26114044 488.81896927 -419.99725342 488.95309448 C-407.5985889 490.25389623 -395.18817679 491.33060698 -382.7578125 492.2734375 C-382.05458107 492.32699968 -381.35134964 492.38056187 -380.62680817 492.43574715 C-373.53129746 492.97563342 -366.43522514 493.50593229 -359.33729839 494.01310921 C-310.07108841 497.55078111 -310.07108841 497.55078111 -298 510 C-293.59817748 516.51931732 -292.85727095 522.99119586 -292.79467773 530.7277832 C-292.78477814 531.48929184 -292.77487854 532.25080048 -292.76467896 533.03538513 C-292.7332118 535.54048606 -292.7083653 538.04560592 -292.68359375 540.55078125 C-292.66301144 542.29241923 -292.64201463 544.03405235 -292.62062073 545.77568054 C-292.56553193 550.35080018 -292.51606468 554.92596391 -292.46777344 559.50115967 C-292.41746187 564.17333889 -292.36182629 568.84545439 -292.30664062 573.51757812 C-292.19922049 582.67833093 -292.09773991 591.83913916 -292 601 C-290.56594839 599.41056923 -289.1324648 597.82062596 -287.69921875 596.23046875 C-286.90088623 595.34512451 -286.10255371 594.45978027 -285.2800293 593.54760742 C-283.43545854 591.48656279 -281.61384589 589.41118972 -279.8125 587.3125 C-269.46234413 575.46590064 -258.41972988 564.25641337 -247.28417969 553.15380859 C-245.10233092 550.97738731 -242.92597087 548.79557761 -240.75 546.61328125 C-239.33625848 545.20019963 -237.92220726 543.78742777 -236.5078125 542.375 C-235.87118683 541.7363501 -235.23456116 541.0977002 -234.5786438 540.43969727 C-210.9137482 516.89611638 -176.96186379 486.63614634 -142 485 C-136.20969616 485.52804658 -130.99450016 487.67370399 -127.16992188 492.13452148 C-126.3278418 493.36537476 -126.3278418 493.36537476 -125.46875 494.62109375 C-124.82969727 495.54631836 -124.19064453 496.47154297 -123.53222656 497.42480469 C-122.52627441 498.91608887 -122.52627441 498.91608887 -121.5 500.4375 C-120.79584961 501.46649414 -120.09169922 502.49548828 -119.36621094 503.55566406 C-112.74977903 513.26673411 -106.32277755 523.09593018 -100 533 C-99.50048828 533.77762695 -99.00097656 534.55525391 -98.48632812 535.35644531 C-78.47129048 566.52420549 -60.48018253 598.97450045 -43.25 631.75 C-42.72398193 632.74515625 -42.19796387 633.7403125 -41.65600586 634.765625 C-41.17655518 635.6834375 -40.69710449 636.60125 -40.203125 637.546875 C-39.77676758 638.35995117 -39.35041016 639.17302734 -38.91113281 640.01074219 C-38 642 -38 642 -38 644 C-26.17495997 634.26173174 -21.99268362 614.55632589 -20 600 C-19.72855222 595.62143016 -19.71432376 591.25648869 -19.7215271 586.87043762 C-19.7157347 585.59105416 -19.7099423 584.31167071 -19.70397437 582.99351805 C-19.68829323 579.47246504 -19.68475031 575.95149207 -19.68332577 572.43040836 C-19.67961076 568.62209073 -19.66444498 564.81381597 -19.65071106 561.00552368 C-19.62850003 554.41736621 -19.61344984 547.82922411 -19.60334396 541.24103737 C-19.58872233 531.71577801 -19.56317583 522.19057224 -19.53501268 512.66534444 C-19.48960785 497.2091208 -19.45296703 481.75288943 -19.421875 466.29663086 C-19.39166357 451.28750246 -19.35730142 436.27839297 -19.31738281 421.26928711 C-19.31492126 420.34322144 -19.31245972 419.41715578 -19.30992357 418.46302751 C-19.29754847 413.81695815 -19.28509203 409.17088901 -19.27259517 404.52481997 C-19.16912189 366.01657288 -19.07988753 327.50830282 -19 289 C-22.79908637 290.34003472 -26.59665627 291.68427853 -30.39297485 293.03213501 C-31.67973265 293.48836171 -32.96687197 293.94351403 -34.25442505 294.39749146 C-81.57753865 311.08878974 -125.07704292 340.3472722 -162.83789062 373.17529297 C-174.76880375 383.52197312 -189.28138566 395.7317912 -206 395 C-211.32300532 393.34201474 -216.13002205 390.99700169 -219.16015625 386.140625 C-222.78314925 379.23226559 -223.14777886 373.08749724 -223.14044189 365.40179443 C-223.14489858 363.94329933 -223.14489858 363.94329933 -223.1494453 362.45533967 C-223.15812368 359.19385055 -223.15963986 355.93239819 -223.16113281 352.67089844 C-223.16576182 350.33324098 -223.17078659 347.99558429 -223.17617798 345.65792847 C-223.18930131 339.30191419 -223.19574752 332.94591047 -223.20018864 326.58988476 C-223.20312118 322.61455074 -223.20722647 318.63921959 -223.21169281 314.66388702 C-223.2238874 303.64052865 -223.23418379 292.6171722 -223.2375679 281.59380722 C-223.23778747 280.88853268 -223.23800703 280.18325814 -223.23823325 279.45661165 C-223.23845153 278.74970744 -223.23866981 278.04280323 -223.2388947 277.31447768 C-223.23933816 275.88217783 -223.23978472 274.44987798 -223.24023438 273.01757812 C-223.2404558 272.30711736 -223.24067723 271.5966566 -223.24090537 270.86466673 C-223.24484473 259.37895572 -223.26227144 247.89330849 -223.2855939 236.40762207 C-223.30938856 224.59309952 -223.32177356 212.77860884 -223.32293582 200.96406198 C-223.32384846 194.33987868 -223.32981975 187.71576863 -223.34775543 181.09160614 C-223.36432478 174.85026005 -223.36634879 168.60907046 -223.35761642 162.36771011 C-223.35685061 160.08823602 -223.36112789 157.80875321 -223.37107468 155.52930069 C-223.49160105 126.16440663 -217.91248419 102.48347352 -197 81 C-196.26523437 80.20335937 -195.53046875 79.40671875 -194.7734375 78.5859375 C-169.90298531 52.38462499 -134.15046943 35.09951688 -102.97998047 17.67675781 C-99.71738339 15.84097895 -96.46967403 13.98037364 -93.22265625 12.1171875 C-90.96097267 10.82806329 -88.69925469 9.53899944 -86.4375 8.25 C-85.3841748 7.64075684 -84.33084961 7.03151367 -83.24560547 6.40380859 C-81.76084717 5.56197021 -81.76084717 5.56197021 -80.24609375 4.703125 C-79.37654053 4.20458008 -78.5069873 3.70603516 -77.61108398 3.19238281 C-74.73280295 1.87798126 -72.12895202 1.38765271 -69 1 C-68.34 1.99 -67.68 2.98 -67 4 C-67.83402344 4.79921875 -68.66804687 5.5984375 -69.52734375 6.421875 C-83.66876417 20.14830066 -94.45341964 33.01127945 -95.07714844 53.5390625 C-95.16215886 59.3612399 -95.10447444 65.17845214 -95 71 C-94.20980469 70.36835938 -93.41960938 69.73671875 -92.60546875 69.0859375 C-85.62178602 63.5346159 -78.54852514 58.11645622 -71.375 52.8125 C-70.62500732 52.25546387 -69.87501465 51.69842773 -69.10229492 51.12451172 C-62.87104699 46.53984907 -56.45109394 42.26732335 -50 38 C-45.90335603 35.27061282 -41.81742934 32.52539262 -37.73608398 29.77319336 C-36.5366235 28.96579217 -35.33577266 28.16045265 -34.13354492 27.35717773 C-23.7454593 20.41346618 -14.01047309 12.91874791 -4.8125 4.4375 C-3.89082031 3.59058594 -2.96914063 2.74367188 -2.01953125 1.87109375 C-1.35308594 1.25363281 -0.68664062 0.63617188 0 0 Z M-474 198 C-476.56417397 203.41587565 -479.12647259 208.83263571 -481.6875 214.25 C-482.07104645 215.06122314 -482.4545929 215.87244629 -482.84976196 216.70825195 C-488.52604676 228.7178463 -494.16050028 240.74548452 -499.71166992 252.81347656 C-500.19224854 253.8547168 -500.67282715 254.89595703 -501.16796875 255.96875 C-501.60064245 256.92891651 -502.03331615 257.88908302 -502.47910118 258.87834549 C-504 262 -504 262 -505.56511879 264.35606003 C-512.12701683 274.79148858 -510.79526311 286.51151386 -510.68115234 298.40332031 C-510.67945812 300.87796487 -510.68041336 303.35261244 -510.68380737 305.82725525 C-510.68516897 311.13604691 -510.66827077 316.44428906 -510.63438034 321.75293732 C-510.58541453 329.42805162 -510.56997104 337.10295252 -510.56245239 344.77820608 C-510.5493523 357.23360692 -510.50950925 369.68877069 -510.45263672 382.14404297 C-510.39748019 394.23615338 -510.35505013 406.32819918 -510.32958984 418.42041016 C-510.3280135 419.16699336 -510.32643716 419.91357657 -510.32481305 420.68278351 C-510.31698227 424.42853738 -510.30940016 428.1742917 -510.30194163 431.92004633 C-510.23984004 462.94686989 -510.13379901 493.97339879 -510 525 C-508.81764519 523.81529617 -508.81764519 523.81529617 -507.61140442 522.60665894 C-505.62455551 520.62342056 -503.62473394 518.67398254 -501.57421875 516.7578125 C-500.9503125 516.17394775 -500.32640625 515.59008301 -499.68359375 514.98852539 C-499.02488281 514.37356201 -498.36617187 513.75859863 -497.6875 513.125 C-496.99398437 512.47587646 -496.30046875 511.82675293 -495.5859375 511.15795898 C-491.95219843 507.75705747 -488.31457562 504.36033461 -484.67578125 500.96484375 C-478.59303529 495.28291799 -472.53513387 489.60515789 -466.69921875 483.66796875 C-464.96429303 481.96494971 -463.16319857 480.38845569 -461.3125 478.8125 C-453.29313077 471.90252968 -445.73567966 464.24810581 -438.890625 456.17578125 C-435.71733378 452.52387379 -432.39393843 449.00811714 -429.08569336 445.47851562 C-424.33116482 440.37302286 -422.75030406 437.90103538 -422.73930359 430.88648987 C-422.73547804 430.15735396 -422.73165249 429.42821805 -422.72771102 428.67698711 C-422.717369 426.22672401 -422.72137554 423.77669472 -422.7253418 421.32641602 C-422.72099568 419.57206505 -422.71581287 417.81771598 -422.70985413 416.06336975 C-422.69643426 411.29014533 -422.69588934 406.51699996 -422.69841743 401.74376035 C-422.69948626 397.75578261 -422.69460541 393.76782092 -422.689812 389.77984661 C-422.67870405 380.3627404 -422.67828503 370.94567405 -422.68432617 361.52856445 C-422.69035234 351.83058416 -422.6780925 342.13274946 -422.6567561 332.43479401 C-422.63909824 324.10084758 -422.63314579 315.76694729 -422.63639385 307.43298286 C-422.638202 302.45939205 -422.63561845 297.48590481 -422.62167931 292.51233101 C-422.60903939 287.82636859 -422.61110303 283.14063111 -422.62409019 278.45467186 C-422.6264431 276.74233548 -422.62376787 275.02998298 -422.61546707 273.3176651 C-422.53125282 254.5815931 -425.97864057 240.8684574 -439 227 C-446.08654494 219.86388373 -453.66706325 213.2867338 -461.51953125 207.01171875 C-464.5929833 204.51907654 -467.52515691 201.88857755 -470.44140625 199.21484375 C-471.93355065 197.79507954 -471.93355065 197.79507954 -474 198 Z " fill="#FFFFFF" transform="translate(771,74)"/>
</svg>
